Coordinates
version=1
nRows=7
nColumns=40
inDegrees=yes

Units are S.I. units (second, meters, Newtons, ...)
Angles are in degrees.

endheader
time	pelvis_tilt	pelvis_list	pelvis_rotation	pelvis_tx	pelvis_ty	pelvis_tz	hip_flexion_r	hip_adduction_r	hip_rotation_r	knee_angle_r	knee_angle_r_beta	ankle_angle_r	subtalar_angle_r	mtp_angle_r	hip_flexion_l	hip_adduction_l	hip_rotation_l	knee_angle_l	knee_angle_l_beta	ankle_angle_l	subtalar_angle_l	mtp_angle_l	lumbar_extension	lumbar_bending	lumbar_rotation	arm_flex_r	arm_add_r	arm_rot_r	elbow_flex_r	pro_sup_r	wrist_flex_r	wrist_dev_r	arm_flex_l	arm_add_l	arm_rot_l	elbow_flex_l	pro_sup_l	wrist_flex_l	wrist_dev_l
     15.46500000	     -6.36256375	     -4.48652807	    -12.32626990	      0.94945174	      0.93168917	      0.42903901	     27.18764704	     -0.27022631	     -7.00856578	     22.14848114	     22.14848114	      5.18585883	      2.16183374	     -1.41316266	      7.93654309	     -4.24642853	    -15.35648178	     16.04322143	     16.04322143	     15.48201623	    -12.16532132	     -0.32187122	     -9.89936419	      7.12967527	      1.09779301	    -17.00205121	    -10.51470243	    -14.30683902	     30.00937108	     46.13718522	      0.00000000	      0.00000000	     39.93660765	    -26.28681615	     -9.69170868	     71.36237665	     47.79428555	      0.00000000	      0.00000000
     15.48435714	     -6.52440595	     -4.18424375	    -12.73693581	      0.94874713	      0.93072909	      0.43125082	     26.76400543	     -0.09636848	     -7.78214561	     18.62118938	     18.62118938	      5.82223488	      5.98287389	      3.13446100	      7.12130588	     -3.90235698	    -15.97710289	     14.80979005	     14.80979005	     14.45698872	    -12.16409434	     -3.20798113	     -9.75795025	      6.90180725	      1.05377430	    -16.98142532	    -10.47126509	    -14.10833427	     30.08696910	     46.12729134	      0.00000000	      0.00000000	     40.63769908	    -26.54114982	    -10.01856782	     71.86647405	     47.84313744	      0.00000000	      0.00000000
     15.50371429	     -6.63344317	     -3.82170192	    -13.07348945	      0.94849932	      0.92955078	      0.43360576	     26.25067397	      0.09380412	     -8.19415989	     15.41043850	     15.41043850	      5.10249093	      8.44595782	      4.39010570	      6.36677324	     -3.49700701	    -16.51234793	     13.89537107	     13.89537107	     14.55728646	    -11.67880724	     -3.60766805	     -9.62746980	      6.63089611	      1.08185704	    -16.94856059	    -10.43713883	    -14.08072434	     30.05141422	     46.12832094	      0.00000000	      0.00000000	     41.26736536	    -26.72537114	    -10.10135525	     72.16701363	     47.86050644	      0.00000000	      0.00000000
     15.52307143	     -6.67185289	     -3.41077283	    -13.36221686	      0.94867931	      0.92816428	      0.43601015	     25.90625202	      0.09818629	     -8.91229568	     13.20302481	     13.20302481	      4.58176730	     10.90207505	      5.64275736	      5.55931128	     -3.02953791	    -17.09499240	     13.03182207	     13.03182207	     14.57692745	    -11.10396384	     -4.44825613	     -9.53023631	      6.31197621	      1.17508601	    -16.80376916	    -10.44320032	    -14.06069914	     29.93174110	     46.13515791	      0.00000000	      0.00000000	     41.84639898	    -26.83039535	    -10.27429902	     72.48572023	     47.88419126	      0.00000000	      0.00000000
     15.54242857	     -6.81990659	     -3.01230992	    -13.55839997	      0.94916676	      0.92655815	      0.43850296	     25.80549865	      0.11030392	     -9.35304003	     11.74685107	     11.74685107	      3.97691390	     12.34542843	      6.41823405	      4.94054823	     -2.61166221	    -17.49657746	     12.32497618	     12.32497618	     14.64873431	    -10.67854768	     -5.15905539	     -9.30669599	      6.08887578	      1.22279034	    -16.62303618	    -10.42696073	    -14.05063243	     29.80647016	     46.14279759	      0.00000000	      0.00000000	     42.20812915	    -26.82456284	    -10.44165066	     72.72272642	     47.90359975	      0.00000000	      0.00000000
     15.56178571	     -6.88976098	     -2.71222592	    -13.73728626	      0.95014011	      0.92502077	      0.44117542	     25.75414392	      0.11900156	     -9.81545078	     11.10265431	     11.10265431	      3.37505611	     13.41499032	      6.42128410	      4.12755211	     -2.25332976	    -17.82528186	     11.42457806	     11.42457806	     13.97267642	    -10.69552059	     -7.47014147	     -9.16056666	      5.94996614	      1.14604664	    -16.03701100	    -10.53407522	    -14.14943035	     28.96729717	     46.20064411	      0.00000000	      0.00000000	     42.30321938	    -26.75192991	    -11.24315084	     73.15058106	     47.97128779	      0.00000000	      0.00000000
     15.58114286	     -6.93791029	     -2.45123329	    -13.83715421	      0.95154487	      0.92365968	      0.44401580	     25.66496420	      0.15568935	     -9.85403334	     10.88224805	     10.88224805	      2.73887858	     13.44865067	      5.68777295	      3.33570907	     -1.93571420	    -17.97323948	     10.74151885	     10.74151885	     14.16191845	    -10.40609038	     -7.65300460	     -9.02828771	      5.89203124	      1.24719115	    -15.78303699	    -10.66571182	    -14.20364094	     28.82147830	     46.21627347	      0.00000000	      0.00000000	     42.33690273	    -26.65143661	    -11.44792490	     73.33829812	     47.98956462	      0.00000000	      0.00000000
